<svg xmlns="http://www.w3.org/2000/svg" viewBox="0 0 512 512">
  <defs>
    <linearGradient id="bg" x1="0" y1="0" x2="1" y2="1">
      <stop offset="0%" stop-color="#29170c"/>
      <stop offset="100%" stop-color="#120b08"/>
    </linearGradient>
    <linearGradient id="accent" x1="0" y1="0" x2="1" y2="1">
      <stop offset="0%" stop-color="#f59e0b"/>
      <stop offset="100%" stop-color="#fb7185"/>
    </linearGradient>
  </defs>
  <rect width="512" height="512" rx="110" fill="url(#bg)"/>
  <rect x="18" y="18" width="476" height="476" rx="96" fill="none" stroke="#f59e0b" stroke-width="10" opacity="0.9"/>
  <circle cx="256" cy="215" r="132" fill="url(#accent)"/>
  <circle cx="256" cy="215" r="102" fill="#261507"/>
  <path d="M175 200c25-43 67-69 116-69 30 0 58 10 80 27" fill="none" stroke="#f59e0b" stroke-width="24" stroke-linecap="round"/>
  <path d="M195 235c17-27 44-43 75-43 21 0 40 7 56 19" fill="none" stroke="#10b981" stroke-width="18" stroke-linecap="round"/>
  <rect x="164" y="311" width="184" height="55" rx="22" fill="#fb7185"/>
  <rect x="336" y="323" width="38" height="30" rx="8" fill="#fb7185"/>
</svg>
